<svg width="512" height="512" viewBox="0 0 512 512" fill="none" xmlns="http://www.w3.org/2000/svg">
    <rect width="512" height="512" rx="256" fill="white" />
    <rect x="56" y="56" width="400" height="400" rx="200" fill="black" />
    <path d="M293.241 262.573C297.08 262.573 299 265.449 299 271.201C299 282.019 290.499 287.428 273.496 287.428C270.206 287.428 265.475 286.812 259.305 285.58C261.087 294.07 262.527 303.519 263.624 313.927C264.858 324.197 265.475 332.688 265.475 339.398C265.475 354.188 263.076 365.486 258.277 373.291C253.478 381.097 247.17 385 239.355 385C229.482 385 222.421 378.016 218.17 364.048C214.057 350.08 212 328.99 212 300.78C212 274.487 214.811 247.852 220.433 220.874C226.191 193.76 234.007 171.369 243.879 153.704C253.889 135.901 264.858 127 276.787 127C283.232 127 288.236 129.876 291.801 135.627C295.504 141.379 297.355 149.116 297.355 158.839C297.355 191.021 278.09 226.078 239.56 264.011C238.189 277.432 237.504 289.209 237.504 299.342C237.504 313.447 237.983 327.895 238.943 342.685C239.903 357.611 241.48 365.075 243.674 365.075C247.787 365.075 249.844 357.954 249.844 343.712C249.844 333.03 249.09 322.691 247.582 312.694C246.21 302.697 244.291 292.153 241.823 281.061C241.686 279.28 242.234 277.021 243.468 274.282C244.839 271.543 246.485 269.147 248.404 267.092C250.324 265.038 252.038 264.011 253.546 264.011C256.288 264.011 259.579 264.148 263.418 264.422C264.652 264.559 266.092 264.627 267.738 264.627C273.222 264.627 279.324 264.148 286.043 263.19C287.139 263.053 288.305 262.916 289.539 262.779C290.773 262.642 292.007 262.573 293.241 262.573ZM272.468 147.336C270 147.336 266.915 151.513 263.213 159.866C259.648 168.22 256.083 179.312 252.518 193.143C248.953 206.838 245.868 221.354 243.262 236.691C254.232 224.229 262.664 211.288 268.56 197.868C274.456 184.311 277.473 171.643 277.61 159.866C277.61 151.513 275.896 147.336 272.468 147.336Z" fill="white" />
</svg>